<svg width="48" height="48" viewBox="0 0 48 48" fill="none" xmlns="http://www.w3.org/2000/svg">
    <path d="M24 0C10.7654 0 0 10.7654 0 24C0 37.2346 10.7654 48 24 48C37.2346 48 48 37.2346 48 24C48 10.7654 37.2346 0 24 0ZM39.8712 11.0654C42.7269 14.5558 44.4577 18.9981 44.4981 23.8385C43.8231 23.6942 37.0442 22.3212 30.225 23.1808C30.0808 22.8288 29.9365 22.4769 29.7865 22.125C29.3596 21.1269 28.9038 20.1288 28.425 19.1538C36 16.0558 39.4385 11.6538 39.8712 11.0654ZM24 3.53077C29.2096 3.53077 33.9692 5.48654 37.5865 8.69423C37.2173 9.21923 34.1308 13.3673 26.8442 16.1019C23.4865 9.92885 19.7654 4.86346 19.1942 4.10192C20.7692 3.72115 22.3788 3.53077 24 3.53077ZM15.2827 5.48077C15.825 6.21923 19.4885 11.3019 22.8808 17.3365C13.2923 19.8808 4.84615 19.8462 3.92885 19.8346C5.26154 13.4712 9.54808 8.18654 15.2827 5.48077ZM3.50192 24.0288C3.50192 23.8212 3.50769 23.6077 3.51346 23.4C4.40769 23.4173 14.3423 23.5442 24.5827 20.4808C25.1712 21.6288 25.7308 22.7942 26.2442 23.9596C25.9731 24.0346 25.7019 24.1154 25.4365 24.2019C14.8615 27.6288 9.23654 36.9462 8.76923 37.7365C5.49808 34.1019 3.50192 29.2962 3.50192 24.0288ZM24 44.5269C19.2577 44.5269 14.8904 42.9115 11.4173 40.2C11.7865 39.4442 15.9346 31.4308 27.4962 27.3981L27.6288 27.3519C30.5077 34.8288 31.6962 41.1 32.0019 42.9C29.473 43.9809 26.7502 44.5345 24 44.5269ZM35.4519 41.025C35.2442 39.7788 34.1538 33.7788 31.4712 26.4115C37.8981 25.3846 43.5404 27.0692 44.2385 27.2885C43.3269 32.9885 40.0558 37.9154 35.4519 41.025Z" fill="#333333"/>
</svg>
