<svg width="48" height="38" viewBox="0 0 48 38" fill="none" xmlns="http://www.w3.org/2000/svg">
    <path d="M42.1873 0.000564124C40.8897 -0.0180939 37.8755 0.41009 32.8429 3.68413C30.1001 3.0178 27.1817 2.68899 24.2584 2.68899C21.0418 2.68899 17.7913 3.08601 14.76 3.89431C7.53464 -0.896995 4.34543 0.0848861 4.34543 0.0848861C2.26339 5.14584 3.55 8.89282 3.94105 9.8234C1.49392 12.3906 0 15.6688 0 19.6866C0 22.7199 0.355164 25.4404 1.22288 27.8054C1.27101 27.988 1.25541 27.9473 1.33649 28.1035C1.52766 28.5931 1.74021 29.0683 1.97911 29.5273C2.06097 29.6924 2.13548 29.8147 2.13548 29.8147C4.57472 34.2344 9.38325 37.0893 17.9388 37.9857L30.8785 38C40.0026 37.1205 44.3808 34.257 46.3984 29.8075L46.5266 29.5178C46.7178 29.0683 46.8845 28.6007 47.3403 27.0264C47.7961 25.4522 48 22.7259 48 19.6854C48 15.3247 46.3151 11.8355 43.5788 9.18094C44.057 7.6807 44.6957 4.34894 42.9411 0.0836701C42.9411 0.0836701 42.6951 0.00786012 42.1874 0.000526124L42.1873 0.000564124ZM31.9902 16.003C34.097 15.9986 35.9018 16.3502 37.2567 17.732V17.7332C38.9522 19.4637 39.9444 21.5531 39.9444 23.8047C39.9444 34.3177 32.9884 34.6037 24.4086 34.6037C15.8274 34.6037 8.87289 33.1469 8.87289 23.8047C8.87289 21.568 9.85057 19.4911 11.5251 17.7676C14.3184 14.8952 19.0453 16.4162 24.4087 16.4162C27.1617 16.4158 29.7474 16.0077 31.9903 16.003L31.9902 16.003ZM16.0085 19.0988C14.2233 19.0988 12.776 21.445 12.776 24.3404C12.776 27.2362 14.2232 29.5831 16.0085 29.5831C17.7937 29.5831 19.241 27.2362 19.241 24.3404C19.241 21.4454 17.7938 19.1009 16.0085 19.0988ZM33.3523 19.0988C31.567 19.0988 30.1198 21.445 30.1198 24.3404C30.1198 27.2362 31.567 29.5831 33.3523 29.5831C35.1375 29.5831 36.5848 27.2362 36.5848 24.3404C36.5848 21.4454 35.1376 19.1009 33.3523 19.0988Z" fill="#333333"/>
</svg>
