<svg width="118" height="48" viewBox="0 0 118 48" fill="none" xmlns="http://www.w3.org/2000/svg">
    <g clip-path="url(#clip0)">
        <path d="M113.466 17.5098C115.332 17.5098 116.22 18.4875 116.22 19.3764V26.7542C116.22 27.732 115.243 28.532 114.354 28.532H113.377C112.4 28.532 111.6 27.5542 111.6 26.6653L111.689 19.2875C111.689 18.3987 111.689 17.5098 113.466 17.5098Z" stroke="#DEBE8F" stroke-width="4" stroke-miterlimit="15.1181"/>
        <path d="M68.5939 23.6433C68.5939 20.8877 64.7731 19.021 58.9975 18.9322C53.133 18.8433 49.3123 20.621 49.3123 22.4877" stroke="#DEBE8F" stroke-width="6" stroke-miterlimit="15.1181"/>
        <path opacity="0.55" d="M7.10596 23.9987C7.10596 12.7987 16.7912 3.90982 28.4313 3.99871C40.0713 4.0876 49.49 13.2432 49.4011 24.4432C49.3123 35.6432 39.7159 44.532 28.0758 44.4431C16.4358 44.2654 7.10596 35.1987 7.10596 23.9987Z" fill="#A8CCD7"/>
        <path opacity="0.55" d="M110.972 24.0139C111.073 12.87 101.686 3.75059 90.0068 3.64508C78.3273 3.53956 68.7776 12.4879 68.677 23.6318C68.5764 34.7757 77.963 43.8951 89.6425 44.0006C101.322 44.1061 110.872 35.1578 110.972 24.0139Z" fill="#A8CCD7"/>
        <path d="M4.52918 28.6209C2.66321 28.6209 1.77466 27.732 1.77466 26.7542L1.86351 19.3764C1.86351 18.3986 2.84092 17.5986 3.72948 17.5986H4.70689C5.6843 17.5986 6.484 18.5764 6.484 19.4653L6.39514 26.7542C6.39514 27.732 6.39514 28.6209 4.52918 28.6209Z" stroke="#DEBE8F" stroke-width="4" stroke-miterlimit="15.1181"/>
        <path d="M28.1648 3.021C39.8049 3.021 49.3124 12.5321 49.3124 24.1765C49.3124 35.821 39.8049 45.3321 28.1648 45.3321" stroke="#DEBE8F" stroke-width="6" stroke-miterlimit="15.1181"/>
        <path d="M89.7416 44.9766C101.421 44.9766 110.889 35.505 110.889 23.8211C110.889 12.1372 101.421 2.66553 89.7416 2.66553C78.0621 2.66553 68.594 12.1372 68.594 23.8211C68.594 35.505 78.0621 44.9766 89.7416 44.9766Z" stroke="#333333" stroke-width="6" stroke-miterlimit="15.1181"/>
        <path d="M42.6481 39.6434C39.3605 42.7545 34.2069 45.3323 28.0759 45.3323C18.6572 45.1545 7.01712 38.2212 7.10597 23.999C7.19483 11.199 18.4795 2.66565 28.4313 3.0212C34.5623 3.11009 38.5608 5.68787 40.6933 7.19898" stroke="#333333" stroke-width="6" stroke-miterlimit="15.1181"/>
    </g>
    <defs>
        <clipPath id="clip0">
            <rect width="118" height="48" fill="white"/>
        </clipPath>
    </defs>
</svg>
