<svg width="48" height="46" viewBox="0 0 48 46" fill="none" xmlns="http://www.w3.org/2000/svg">
    <path d="M10.8964 46V14.9639H0.607065V46H10.8964ZM5.75305 10.7239C9.34111 10.7239 11.5745 8.34067 11.5745 5.36244C11.5077 2.31706 9.34125 0 5.82114 0C2.30158 0 0 2.31711 0 5.36244C0 8.3408 2.23285 10.7239 5.68588 10.7239H5.75273H5.75305ZM16.5915 46H26.8808V28.6679C26.8808 27.7403 26.9476 26.8137 27.2194 26.1506C27.9632 24.2973 29.6562 22.3778 32.4985 22.3778C36.2218 22.3778 37.7113 25.2239 37.7113 29.3961V45.9998H48V28.204C48 18.6709 42.9238 14.2352 36.154 14.2352C30.6034 14.2352 28.1663 17.3458 26.8123 19.4645H26.881V14.9632H16.5917C16.7267 17.8755 16.5917 45.9994 16.5917 45.9994L16.5915 46Z" fill="#333333"/>
</svg>
